<svg xmlns="http://www.w3.org/2000/svg" xmlns:xlink="http://www.w3.org/1999/xlink" width="201" height="61" viewBox="0 0 201 61"><defs><path id="1x5da" d="M375.06 7751.06c0-1.1.9-2 2-2h.19a2 2 0 0 1 2 2v54.88a2 2 0 0 1-2 2h-.19a2 2 0 0 1-2-2zm6.82 5.25c0-1.1.9-2 2-2h.19a2 2 0 0 1 2 2v49.63a2 2 0 0 1-2 2h-.19a2 2 0 0 1-2-2zm6.84 5.25c0-1.1.9-2 2-2h.22a2 2 0 0 1 2 2v30.19a2 2 0 0 1-2 2h-.22a2 2 0 0 1-2-2zm6.84 4.22c0-1.1.9-2 2-2h.22a2 2 0 0 1 2 2v32.28a2 2 0 0 1-2 2h-.22a2 2 0 0 1-2-2zm6.82 4.19c0-1.1.9-2 2-2h.22a2 2 0 0 1 2 2v34.94a2 2 0 0 1-2 2h-.22a2 2 0 0 1-2-2zm6.84-4.72c0-1.1.9-2 2-2h.22a2 2 0 0 1 2 2v32.81a2 2 0 0 1-2 2h-.22a2 2 0 0 1-2-2zm6.84-3.69c0-1.1.9-2 2-2h.22a2 2 0 0 1 2 2v30.19a2 2 0 0 1-2 2h-.22a2 2 0 0 1-2-2zm6.82-5.25c0-1.1.9-2 2-2h.22a2 2 0 0 1 2 2v49.63a2 2 0 0 1-2 2h-.22a2 2 0 0 1-2-2zm6.84-5.25c0-1.1.9-2 2-2h.22a2 2 0 0 1 2 2v54.88a2 2 0 0 1-2 2h-.22a2 2 0 0 1-2-2z"/></defs><g><g transform="translate(-374 -7748)"><use fill="#0193de" xlink:href="#1x5da"/></g><g transform="translate(-374 -7748)"><g font-family="Asap" font-size="99.79" font-style="none" font-weight="400" style="line-height:21px"><text dominant-baseline="text-before-edge" font-family="Helvetica, Arial, sans-serif" transform="translate(443 7763)"><tspan font-family="Asap-Bold" font-weight="700" letter-spacing="1" style="font-kerning:normal">meta</tspan><tspan font-family="Asap-Regular" letter-spacing="1" style="font-kerning:normal">media</tspan></text></g></g><g transform="translate(-374 -7748)"><g font-family="'Asap','Asap-Regular'" font-size="37.42" font-style="none" font-weight="400" style="line-height:21px"><text dominant-baseline="text-before-edge" font-family="Helvetica, Arial, sans-serif" transform="translate(444 7786)"><tspan letter-spacing=".37" style="font-kerning:normal">we just monetize better</tspan></text></g></g></g></svg>