<svg xmlns="http://www.w3.org/2000/svg" xmlns:xlink="http://www.w3.org/1999/xlink" width="14" height="23" viewBox="0 0 14 23"><defs><path id="iklea" d="M76.83 1778.74a.66.66 0 0 0-.2-.47l-1-1a.69.69 0 0 0-.46-.2.69.69 0 0 0-.46.2l-9.34 9.34c-.12.12-.2.3-.2.46 0 .16.08.34.2.47l9.34 9.33c.12.12.3.2.46.2a.7.7 0 0 0 .46-.2l1-1c.12-.12.2-.3.2-.46a.69.69 0 0 0-.2-.46l-7.88-7.88 7.88-7.87a.7.7 0 0 0 .2-.46z"/></defs><g><g opacity=".25" transform="translate(-64 -1776)"><use fill="#303030" xlink:href="#iklea"/></g></g></svg>