<svg xmlns="http://www.w3.org/2000/svg" xmlns:xlink="http://www.w3.org/1999/xlink" width="14" height="23" viewBox="0 0 14 23"><defs><path id="tx6xa" d="M1843.17 1794.26c0 .18.08.34.2.46l1 1c.12.12.3.2.46.2a.7.7 0 0 0 .46-.2l9.34-9.34c.12-.12.2-.3.2-.46a.69.69 0 0 0-.2-.46l-9.34-9.34a.69.69 0 0 0-.46-.2.69.69 0 0 0-.46.2l-1 1a.7.7 0 0 0-.2.46c0 .16.08.34.2.46l7.88 7.88-7.88 7.88a.7.7 0 0 0-.2.46z"/></defs><g><g transform="translate(-1842 -1774)"><use fill="#fff" xlink:href="#tx6xa"/></g></g></svg>