<svg xmlns="http://www.w3.org/2000/svg" xmlns:xlink="http://www.w3.org/1999/xlink" width="38" height="38" viewBox="0 0 38 38"><defs><path id="ea4aa" d="M1500 1391.5c0 9.65-7.85 17.5-17.5 17.5s-17.5-7.85-17.5-17.5 7.85-17.5 17.5-17.5 17.5 7.85 17.5 17.5zm-7.69-6.09c-.72.32-1.5.54-2.3.64a4.05 4.05 0 0 0 1.76-2.23c-.78.46-1.64.8-2.55.97a4.03 4.03 0 0 0-6.87 3.68 11.44 11.44 0 0 1-8.3-4.21 4.01 4.01 0 0 0 1.25 5.38 4 4 0 0 1-1.83-.5v.04a4.03 4.03 0 0 0 3.23 3.95 4.03 4.03 0 0 1-1.82.07c.52 1.6 2 2.77 3.77 2.8a8.09 8.09 0 0 1-5.97 1.67 11.4 11.4 0 0 0 6.18 1.8c7.4 0 11.46-6.13 11.46-11.45l-.01-.53a8.1 8.1 0 0 0 2-2.08z"/></defs><g><g opacity=".5" transform="translate(-1463 -1372)"><use fill="#fff" xlink:href="#ea4aa"/></g></g></svg>